<?xml version="1.0" encoding="UTF-8" standalone="no"?>
<!-- Created with Inkscape (http://www.inkscape.org/) -->

<svg
   width="468.76138mm"
   height="336.45404mm"
   viewBox="0 0 468.76138 336.45404"
   version="1.1"
   id="svg5"
   inkscape:version="1.2-dev (4cd2fc9, 2021-12-07)"
   sodipodi:docname="BMS.svg"
   xmlns:inkscape="http://www.inkscape.org/namespaces/inkscape"
   xmlns:sodipodi="http://sodipodi.sourceforge.net/DTD/sodipodi-0.dtd"
   xmlns="http://www.w3.org/2000/svg"
   xmlns:svg="http://www.w3.org/2000/svg">
  <sodipodi:namedview
     id="namedview7"
     pagecolor="#ffffff"
     bordercolor="#000000"
     borderopacity="0.25"
     inkscape:pageshadow="2"
     inkscape:pageopacity="0.0"
     inkscape:pagecheckerboard="0"
     inkscape:blackoutopacity="0.0"
     inkscape:document-units="mm"
     showgrid="false"
     inkscape:zoom="0.36257716"
     inkscape:cx="1082.5282"
     inkscape:cy="715.70973"
     inkscape:window-width="1920"
     inkscape:window-height="1001"
     inkscape:window-x="-9"
     inkscape:window-y="-9"
     inkscape:window-maximized="1"
     inkscape:current-layer="layer1" />
  <defs
     id="defs2" />
  <g
     inkscape:label="Calque 1"
     inkscape:groupmode="layer"
     id="layer1"
     transform="translate(172.76921,107.26152)">
    <path
       style="fill:#000000;stroke-width:0.538136"
       d="m -122.78595,228.43853 c -6.91058,-2.4695 -11.06657,-8.05762 -12.40755,-16.6831 -1.32951,-8.55179 1.15346,-17.07672 6.35964,-21.83488 3.62652,-3.31443 7.0888,-4.54702 12.6857,-4.51617 3.55625,0.0196 4.65461,0.26993 7.64584,1.7425 5.31717,2.61764 8.687305,7.17751 10.070045,13.62504 0.80038,3.73204 0.30439,12.91961 -0.88004,16.30149 -1.967495,5.61775 -6.120635,9.79213 -11.261105,11.31869 -3.24901,0.96485 -9.57513,0.9889 -12.21253,0.0464 z m 10.12612,-8.69523 c 2.58346,-1.69275 3.64264,-5.19875 3.65162,-12.08726 0.0125,-9.5769 -1.9439,-13.38514 -7.10467,-13.82972 -5.2962,-0.45625 -7.74721,2.86058 -8.12232,10.99157 -0.43121,9.34684 0.80125,13.33447 4.75214,15.37555 2.12185,1.09618 4.72539,0.92442 6.82323,-0.45014 z m 207.474113,8.29459 c -6.045318,-2.32335 -10.399389,-8.60172 -11.364282,-16.38677 -1.880505,-15.17249 5.585793,-26.10622 17.940949,-26.27295 4.7594,-0.0642 7.92614,0.84521 11.18712,3.21278 3.43809,2.49615 5.5886,5.60822 6.93223,10.0318 1.55235,5.1108 1.25641,14.75489 -0.59871,19.51026 -1.68246,4.31278 -5.68561,8.32417 -9.86913,9.88942 -4.10705,1.53665 -10.252689,1.54332 -14.228177,0.0155 z m 10.951687,-8.25707 c 2.47223,-1.61987 3.60698,-4.86901 3.8731,-11.08983 0.40127,-9.37992 -1.78539,-14.19576 -6.74787,-14.86137 -3.211778,-0.43079 -5.732297,0.98413 -7.224375,4.05547 -2.340766,4.81832 -1.891821,16.93414 0.752033,20.29525 2.25107,2.86177 6.350772,3.56375 9.347112,1.60048 z m 132.33136,8.89571 c -4.96332,-1.21368 -9.61849,-5.50311 -11.63051,-10.71676 -1.655,-4.2885 -2.05896,-14.21015 -0.76043,-18.67694 1.90161,-6.54131 4.76039,-10.14879 9.92279,-12.52154 3.84735,-1.76831 10.56512,-1.94917 15.07195,-0.40577 5.07246,1.7371 8.8526,6.31926 9.91423,12.01768 l 0.32583,1.74894 h -5.30802 -5.30801 l -0.3372,-1.79741 c -0.18545,-0.98858 -0.95839,-2.381 -1.71764,-3.09428 -1.85694,-1.7445 -7.00132,-1.87304 -8.82841,-0.2206 -2.76966,2.50489 -3.45647,4.89626 -3.47751,12.10805 -0.017,5.83062 0.13889,7.07 1.17021,9.30383 1.50729,3.26473 4.83946,5.00334 8.6011,4.48775 4.02988,-0.55235 4.46967,-1.01109 4.46967,-4.6622 v -3.20988 h -3.49788 -3.49788 v -3.76695 -3.76695 h 8.87924 8.87923 v 8.85827 c 0,9.92264 0.011,9.89226 -4.4232,12.17844 -4.49877,2.31945 -13.45643,3.35679 -18.44756,2.13632 z m -410.86654,-21.59439 v -21.60016 l 10.89725,0.23948 c 11.8017,0.25938 13.10943,0.52049 17.24765,3.44392 1.62824,1.15027 2.86107,2.64931 3.86298,4.69715 1.30046,2.65805 1.44921,3.49849 1.2795,7.22916 -0.1607,3.53265 -0.43785,4.59288 -1.69858,6.49793 -3.00088,4.53454 -7.96023,6.52405 -16.2628,6.52405 h -4.53205 l -0.15015,7.13029 -0.15015,7.1303 -5.24683,0.15402 -5.24682,0.15402 z m 19.61592,-1.80215 c 2.15636,-0.90099 2.98578,-2.24217 2.98578,-4.82809 0,-4.52607 -2.21844,-6.24925 -8.04531,-6.24925 h -3.79368 v 5.91949 5.91949 h 3.51517 c 1.93334,0 4.33546,-0.34274 5.33804,-0.76164 z m 66.271475,22.7096 c -0.98864,-3.5053 -8.80226,-41.63677 -8.59922,-41.96531 0.14679,-0.23749 2.43803,-0.4318 5.09166,-0.4318 4.51341,0 4.85338,0.0781 5.26794,1.2108 0.24375,0.66595 1.38112,6.4844 2.5275,12.9299 l 2.08434,11.71909 0.61972,-2.83986 c 0.34084,-1.56191 1.39748,-6.47226 2.34808,-10.91188 0.9506,-4.43962 1.9593,-8.98014 2.24156,-10.09004 l 0.5132,-2.01801 h 4.25258 c 2.33892,0 4.38965,0.22178 4.55717,0.49283 0.16752,0.27106 1.49602,5.74236 2.95222,12.15846 1.4562,6.41609 2.74143,11.75942 2.85607,11.87406 0.11464,0.11464 1.12469,-4.8118 2.24456,-10.94765 1.11986,-6.13585 2.15972,-11.70095 2.31079,-12.3669 0.26078,-1.14953 0.52882,-1.2108 5.29687,-1.2108 2.76221,0 5.11745,0.18162 5.23387,0.4036 0.11643,0.22198 -1.44726,8.15276 -3.47486,17.62394 -2.02759,9.47119 -4.06236,18.97601 -4.52171,21.12183 l -0.83517,3.90148 h -5.51684 -5.51685 l -2.65302,-11.25482 c -1.45916,-6.19016 -2.73341,-11.17496 -2.83167,-11.07736 -0.0982,0.0976 -1.32345,5.10174 -2.72267,11.12029 l -2.54402,10.94282 -5.49352,0.15347 c -4.11993,0.11509 -5.54229,-0.0195 -5.68858,-0.53814 z m 45.54606,-20.73715 0.14071,-21.39089 h 14.52966 14.52966 l 0.15717,4.17055 0.15717,4.17055 h -9.44001 -9.44001 v 4.30508 4.30509 h 8.09561 8.09561 l -0.15811,3.90148 -0.15811,3.90149 -7.9375,0.14891 -7.9375,0.14893 v 4.82883 4.82883 h 9.41738 9.41737 v 4.03602 4.03602 h -14.8049 -14.80491 z m 33.2360495,-0.13454 v -21.52542 h 9.04947004 c 4.97721096,0 10.48637446,0.26313 12.24258546,0.58473 6.84198,1.25292 10.853824,4.98453 11.498742,10.69555 0.661191,5.85514 -1.265668,10.75849 -5.121792,13.03366 l -1.863994,1.09978 4.317833,8.32649 c 2.374809,4.57958 4.317833,8.54793 4.317833,8.81857 0,0.27064 -2.52589,0.49207 -5.613082,0.49207 h -5.613088 l -3.82276,-7.5339 -3.8227645,-7.5339 h -2.403136 -2.403136 v 7.5339 7.5339 h -5.381357 -5.381354 z m 20.6688885,-3.18247 c 1.798202,-1.68932 2.243364,-4.18086 1.1952,-6.68947 -1.019132,-2.43912 -2.482183,-3.04331 -7.3694615,-3.04331 h -3.731916 v 5.70741 5.7074 l 4.263992,-0.19364 c 3.6091745,-0.1639 4.4756375,-0.39247 5.6421855,-1.48839 z m 43.424735,23.49709 c -1.446691,-3.84126 -13.508877,-40.62101 -13.508877,-41.19097 0,-0.52183 1.366552,-0.64902 5.723976,-0.53274 l 5.723971,0.15274 3.704429,13.45339 c 2.037435,7.39936 3.893717,14.16922 4.125078,15.04413 0.349159,1.32039 1.110115,-0.96604 4.477493,-13.45339 l 4.056848,-15.04413 5.294146,-0.15519 c 2.911782,-0.0853 5.600582,-0.0376 5.975108,0.10614 0.490059,0.18805 -1.30958,6.22566 -6.419323,21.53619 l -7.100285,21.27489 -5.798276,0.01 c -5.5235,0.009 -5.819889,-0.0475 -6.254288,-1.20093 z m 69.492372,-20.18008 0.1407,-21.39089 h 5.11229 5.11229 l 0.14199,17.35487 0.14199,17.35487 h 8.87178 8.87178 v 4.03602 4.03602 h -14.26676 -14.26678 z m 36.46486,4.17055 v -17.22034 h -6.2112 -6.2112 l 0.15718,-4.17055 0.15716,-4.17055 h 17.75848 17.75847 v 4.03601 4.03602 l -6.32309,0.15162 -6.32309,0.1516 v 17.20327 17.20326 h -5.38136 -5.38135 z m 20.7048,16.29746 c 0.63343,-1.57932 9.87296,-26.81066 12.46293,-34.03382 1.32221,-3.68752 2.67088,-7.02612 2.99704,-7.41912 0.42846,-0.51626 1.87111,-0.67172 5.19905,-0.56025 l 4.60603,0.15429 3.35178,8.87923 c 1.84348,4.88359 5.28147,14.0857 7.63998,20.44916 2.35851,6.36345 4.46042,12.00218 4.6709,12.53051 0.35526,0.89172 -0.0336,0.9496 -5.42232,0.80721 l -5.80502,-0.1534 -1.12102,-3.34049 c -0.61656,-1.83726 -1.39219,-3.60983 -1.72362,-3.93904 -0.39465,-0.392 -2.78233,-0.53916 -6.91917,-0.42646 l -6.31657,0.17209 -1.17371,3.76695 -1.17373,3.76695 -5.82891,0.1534 c -5.41248,0.14244 -5.80139,0.0848 -5.44364,-0.80721 z m 24.24554,-16.16293 c -0.20251,-0.51795 -1.11501,-3.5463 -2.02777,-6.72966 -0.91276,-3.18337 -1.75781,-5.68969 -1.87788,-5.56962 -0.25259,0.25258 -3.89939,12.23275 -3.90776,12.83742 -0.003,0.22198 1.83653,0.4036 4.08801,0.4036 3.68016,0 4.05641,-0.0951 3.7254,-0.94174 z m 59.44796,-4.44826 v -21.53408 l 14.6642,0.14318 14.66419,0.14319 0.15719,4.17055 0.15714,4.17055 h -9.43998 -9.44003 v 4.30508 4.30509 h 7.80297 7.80296 v 4.03602 4.03601 h -7.80296 -7.80297 v 4.84322 4.84322 h 9.41738 9.41737 v 4.03602 4.03602 H 281.14818 266.34945 Z M 40.601566,159.45834 c -18.226255,-2.47538 -35.0102425,-8.22767 -49.6430115,-17.01387 -2.4417895,-1.46617 -4.4314495,-2.83113 -4.4214595,-3.03324 0.01,-0.20211 2.29503,-2.00479 5.0778895,-4.00594 l 5.059734,-3.63847 6.170053,3.17337 c 17.2105565,8.85169 34.4788545,12.99518 54.0629605,12.97229 21.765788,-0.0254 41.33179,-5.32032 59.461868,-16.09133 30.90193,-18.35871 51.23984,-48.482411 56.70652,-83.991387 1.33123,-8.647054 1.32631,-26.533084 -0.01,-34.709748 -2.07214,-12.6833725 -5.83843,-24.709024 -10.89849,-34.798481 -2.30105,-4.58816 -7.42185,-13.049654 -9.45824,-15.628583 l -1.57519,-1.994858 3.89429,-4.597303 c 2.14186,-2.528517 4.15179,-4.593278 4.46651,-4.58836 0.31471,0.0048 2.05125,2.123828 3.85897,4.708687 14.79887,21.160903 22.43684,44.2354365 23.19846,70.083221 0.34432,11.685712 -0.31412,19.66897 -2.52992,30.673731 -3.9514,19.624644 -12.90248,38.682582 -25.65414,54.620761 -21.60789,27.00751 -53.24641,44.41667 -87.475932,48.1338 -7.093757,0.77035 -23.70736,0.61991 -30.291336,-0.27429 z m -99.286021,-4.2325 c 0,-0.18261 1.76743,-2.44531 3.92761,-5.02824 2.16019,-2.58292 6.72709,-8.08648 10.14868,-12.23012 3.42159,-4.14365 11.76439,-14.21483 18.53955,-22.3804 18.4297095,-22.21188 44.443388,-53.584477 51.490554,-62.097798 3.425884,-4.138645 6.184432,-7.556199 6.130102,-7.594569 -0.08077,-0.05704 -10.636014,1.093783 -34.4049265,3.751113 -1.405879,0.157173 -2.55614,0.09946 -2.55614,-0.128254 0,-0.227712 2.603227,-2.477157 5.78495404,-4.998774 C 6.8306665,39.403232 50.967662,4.5138805 70.409274,-10.841055 c 6.92305,-5.467813 20.362987,-16.081435 29.866526,-23.585833 21.21699,-16.75383 24.39558,-19.266041 34.23043,-27.054187 4.29163,-3.39851 11.9197,-9.421996 16.95127,-13.385526 5.03157,-3.963531 12.05424,-9.507695 15.60593,-12.320375 6.8996,-5.46395 16.46958,-13.019134 22.58065,-17.826664 2.06025,-1.62077 3.52635,-2.58362 3.25801,-2.13966 -0.44919,0.74317 -18.1897,21.667014 -49.73279,58.656786 -6.9408,8.139302 -13.64265,16.009535 -14.893,17.489408 -1.25035,1.479873 -5.50604,6.470462 -9.4571,11.090195 C 106.20535,-5.1682875 94.143045,8.9868695 84.459618,20.40417 79.280063,26.511154 73.746942,33.000779 72.16379,34.825549 c -2.209499,2.546711 -2.647224,3.317482 -1.883475,3.316524 0.83707,-0.0011 18.410647,-2.5956 32.921285,-4.860484 3.853,-0.601393 5.48405,-0.363069 3.83419,0.560232 -0.45307,0.253553 -2.75158,1.887333 -5.10781,3.630629 -6.616583,4.895398 -47.593118,35.028345 -83.92811,61.718279 -18.05444946,13.261931 -35.005725,25.742321 -37.669495,27.734191 -5.35518,4.00443 -32.28265,23.79633 -36.40346,26.75684 -1.43625,1.03185 -2.61137,1.72668 -2.61137,1.54408 z m 13.38829,-44.56874 c -14.77297,-19.021214 -23.57531,-40.333714 -26.59984,-64.404343 -1.12918,-8.98651 -0.85611,-26.809815 0.54884,-35.82342 4.10701,-26.348912 17.02718,-51.828294 35.95822,-70.911837 30.5563195,-30.802456 72.553202,-44.06606 116.069285,-36.657386 6.717127,1.1436 18.075109,4.49411 25.51473,7.52663 9.6405,3.92964 27.02707,13.982932 26.90195,15.5553 -0.0236,0.295975 -2.13048,2.18595 -4.68206,4.19995 l -4.63925,3.661813 -5.89314,-3.498102 c -7.6723,-4.554204 -11.37048,-6.399729 -18.005921,-8.985643 -7.208972,-2.809423 -15.292592,-5.093438 -22.918932,-6.475708 -8.961927,-1.62434 -24.878585,-1.98266 -34.375629,-0.77387 -38.2120525,4.863662 -70.885563,27.361175 -89.534033,61.649105 -6.21377,11.424943 -10.89247,26.2547385 -12.78808,40.533645 -0.84981,6.40129 -0.69228,23.578607 0.28077,30.616291 1.83148,13.246256 6.29119,27.044813 12.48518,38.629732 3.09238,5.783817 8.49906,14.116293 11.75626,18.118113 1.00415,1.23371 1.82573,2.5301 1.82573,2.88088 0,0.79007 -6.90933,9.1366 -7.56335,9.1366 -0.26109,0 -2.21442,-2.23999 -4.34073,-4.97775 z"
       id="path2699" />
  </g>
</svg>
