<?xml version="1.0" encoding="UTF-8" standalone="no"?>
<!-- Created with Inkscape (http://www.inkscape.org/) -->

<svg
   version="1.1"
   id="svg782"
   width="299.5751"
   height="266.19818"
   viewBox="0 0 299.5751 266.19818"
   sodipodi:docname="Logo_clavier.svg"
   inkscape:version="1.2-dev (4cd2fc9, 2021-12-07)"
   xmlns:inkscape="http://www.inkscape.org/namespaces/inkscape"
   xmlns:sodipodi="http://sodipodi.sourceforge.net/DTD/sodipodi-0.dtd"
   xmlns="http://www.w3.org/2000/svg"
   xmlns:svg="http://www.w3.org/2000/svg">
  <defs
     id="defs786" />
  <sodipodi:namedview
     id="namedview784"
     pagecolor="#ffffff"
     bordercolor="#000000"
     borderopacity="0.25"
     inkscape:pageshadow="2"
     inkscape:pageopacity="0.0"
     inkscape:pagecheckerboard="0"
     inkscape:blackoutopacity="0.0"
     showgrid="false"
     inkscape:zoom="1.7648382"
     inkscape:cx="130.60688"
     inkscape:cy="111.90828"
     inkscape:window-width="1920"
     inkscape:window-height="1001"
     inkscape:window-x="-9"
     inkscape:window-y="-9"
     inkscape:window-maximized="1"
     inkscape:current-layer="g788" />
  <g
     inkscape:groupmode="layer"
     inkscape:label="Image"
     id="g788"
     transform="translate(-68.950721,-63.012963)">
    <path
       id="path2305"
       style="fill:#000000;stroke-width:0.32"
       d="m 164.1018,63.074101 c -1.08278,-0.164401 -2.18634,0.0012 -3.18946,0.515625 -1.49343,0.765875 -2.43526,1.804709 -2.90234,3.199218 -0.26147,0.780553 -0.36337,8.912979 -0.35937,28.798828 0.005,23.022318 0.0857,28.085528 0.47265,29.912108 1.49332,7.04841 7.23721,12.93749 14.39063,14.75586 2.44425,0.62131 6.86043,0.62131 9.30468,0 8.49681,-2.15986 14.83223,-10.07996 14.86133,-18.57812 0.0166,-4.84845 3.49902,-8.46113 8.14844,-8.45313 3.39193,0.005 6.13593,1.75758 7.51172,4.79688 0.63476,1.40237 0.6512,2.00122 0.6582,22.95898 l 0.008,21.51953 -69.35937,0.002 c -46.723913,0.001 -69.749102,0.11133 -70.550782,0.33398 -1.52543,0.42365 -3.097797,1.74818 -3.654297,3.08008 -0.66503,1.59153 -0.649625,158.7676 0.01563,160.04101 0.58046,1.11107 2.04614,2.49982 3.06836,2.90626 v -0.002 c 1.09587,0.43565 290.620869,0.48022 292.138669,0.0449 1.22918,-0.35251 2.73258,-1.65225 3.41015,-2.94922 0.38502,-0.73702 0.45118,-12.49164 0.45118,-79.90039 0,-55.20428 -0.1034,-79.30633 -0.3418,-79.93554 -0.48538,-1.28101 -1.53675,-2.33218 -3.01758,-3.01563 -1.23187,-0.56858 -3.90072,-0.59065 -70.96094,-0.59765 l -69.67968,-0.008 -0.0117,-21.03906 c -0.0127,-23.87016 -0.0531,-24.40475 -2.22657,-28.79102 -3.60323,-7.27163 -11.84849,-11.77636 -19.57812,-10.69531 -5.95979,0.83352 -10.82086,3.80142 -13.98828,8.53711 -1.99416,2.9815 -2.87021,5.58975 -3.23438,9.64453 -0.16081,1.79049 -0.49295,3.7348 -0.73828,4.32031 -0.65384,1.56042 -2.00875,3.03979 -3.69531,4.03125 -1.26195,0.74186 -1.84895,0.87305 -3.88672,0.87305 -2.04174,0 -2.62343,-0.13053 -3.89648,-0.8789 -0.82305,-0.48382 -1.94423,-1.4199 -2.49024,-2.08008 -1.97917,-2.39293 -1.93359,-1.66134 -1.93359,-31.669925 0,-29.492739 0.0427,-28.71507 -1.67383,-30.212891 -0.92507,-0.807195 -1.98754,-1.300442 -3.07031,-1.464843 z M 80.205313,174.02137 H 218.76586 357.32641 v 71.99804 71.9961 l -138.56055,0.004 -138.560547,0.002 v -72 z m 71.999997,10.88281 c -5.87684,0 -11.75246,0.1089 -12.54883,0.33008 -1.52542,0.42365 -3.09779,1.75013 -3.65429,3.08203 -0.34339,0.82183 -0.43555,3.71217 -0.43555,13.55078 0,10.85185 0.0672,12.64066 0.51367,13.5293 0.5893,1.1729 1.46888,1.98921 2.84571,2.63867 0.78594,0.37079 3.25527,0.43871 13.62304,0.37891 l 12.66407,-0.0723 1.18164,-0.80078 c 0.64946,-0.44 1.46701,-1.38599 1.8164,-2.10156 0.60035,-1.2295 0.63477,-1.98134 0.63477,-13.68946 0,-9.73986 -0.0944,-12.61233 -0.4375,-13.43359 -0.5565,-1.3319 -2.12692,-2.65838 -3.65235,-3.08203 -0.79637,-0.22118 -6.67393,-0.33008 -12.55078,-0.33008 z m 133.1211,0 c -5.87685,0 -11.75441,0.1089 -12.55078,0.33008 -1.52543,0.42365 -3.09585,1.75013 -3.65235,3.08203 -0.34339,0.82183 -0.4375,3.71217 -0.4375,13.55078 0,10.85185 0.0672,12.64066 0.51367,13.5293 0.5893,1.1729 1.46888,1.98921 2.84571,2.63867 0.78594,0.37079 3.25723,0.43871 13.625,0.37891 l 12.66406,-0.0723 1.1582,-0.79492 c 0.63748,-0.43698 1.45503,-1.32186 1.81641,-1.96485 0.63165,-1.12384 0.65625,-1.65315 0.65625,-13.69531 0,-9.85596 -0.0921,-12.74838 -0.43555,-13.57031 -0.5565,-1.3319 -2.12887,-2.65838 -3.65429,-3.08203 -0.79638,-0.22118 -6.67199,-0.33008 -12.54883,-0.33008 z m 45.46679,0.0527 c -7.75903,-0.0688 -12.25474,0.015 -13.33203,0.25 -2.00407,0.43726 -3.77531,2.11943 -4.22656,4.01368 -0.43289,1.81699 -0.50568,23.50036 -0.084,25.0664 0.45645,1.69514 1.46566,2.89725 3.02929,3.60742 1.19721,0.5437 2.32522,0.59361 13.63086,0.59961 13.82589,0.008 13.5425,0.0504 15.50781,-2.37695 l 0.9668,-1.19531 0.0937,-12.61328 c 0.10755,-14.4422 0.10064,-14.4902 -2.49219,-16.28711 l -1.38476,-0.96094 z m -133.30664,0.002 c -7.57963,-0.0672 -12.07693,0.0178 -13.14648,0.25 -1.97291,0.42831 -3.74447,2.09557 -4.26367,4.01172 -0.54221,2.00102 -0.44474,23.97638 0.11328,25.54101 0.5687,1.59459 1.3278,2.41638 2.89648,3.13672 1.1708,0.53761 2.3307,0.5897 13.59961,0.5957 13.8216,0.007 13.59262,0.0405 15.49805,-2.34375 l 0.98242,-1.22851 v -13.0332 -13.03516 l -0.85156,-1.28516 c -1.63004,-2.46315 -1.80089,-2.49387 -14.82813,-2.60937 z m -90.51367,0.008 -11.935546,0.0937 -1.361328,0.90234 c -2.55367,1.69068 -2.575984,1.82521 -2.583984,15.83008 -0.0066,11.42248 0.03592,12.33461 0.603516,13.44141 0.710739,1.38593 1.783456,2.45697 2.910156,2.90625 0.47948,0.19119 5.726826,0.32764 13.099606,0.33984 11.9008,0.0196 12.34442,-0.001 13.70117,-0.6582 0.84418,-0.40866 1.74268,-1.19548 2.25977,-1.97656 l 0.85938,-1.29688 0.0996,-11.70312 c 0.11527,-13.55881 0.0124,-14.45547 -1.85938,-16.14649 -0.68394,-0.61791 -1.83231,-1.28115 -2.55078,-1.47461 -0.87129,-0.23462 -5.28106,-0.32091 -13.24219,-0.25781 z m 133.12109,0 -11.93554,0.0937 -1.36133,0.90234 c -2.55357,1.69063 -2.57598,1.82603 -2.58398,15.82813 -0.008,13.12284 0.0376,13.54537 1.63085,15.00781 0.41869,0.3843 1.19466,0.92461 1.72266,1.19922 0.82094,0.42695 2.74041,0.49995 13.25781,0.50195 11.88121,0.002 12.34666,-0.022 13.70118,-0.67773 0.84406,-0.4086 1.74469,-1.19566 2.26171,-1.97656 l 0.85938,-1.29688 0.10352,-11.70312 c 0.12034,-13.55692 0.0165,-14.44641 -1.86524,-16.14649 -0.68394,-0.61791 -1.83036,-1.28115 -2.54883,-1.47461 -0.87129,-0.23462 -5.28106,-0.32091 -13.24219,-0.25781 z m -137.80859,11.45508 h 5.44141 5.43945 v 5.43945 5.43946 h -5.43945 -5.44141 v -5.43946 z m 44.48047,0 h 5.43945 5.44141 v 5.43945 5.43946 h -5.44141 -5.43945 v -5.43946 z m 44.48047,0 h 5.44726 5.44727 l -0.0879,5.35937 -0.0879,5.35938 -5.35938,0.0879 -5.35937,0.0879 v -5.44727 z m 44.16015,0 h 5.43946 5.43945 v 5.43945 5.43946 h -5.43945 -5.43946 v -5.43946 z m 44.47852,0 h 5.44141 5.43945 v 5.43945 5.43946 h -5.43945 -5.44141 v -5.43946 z m 44.48047,0 h 5.44727 5.44921 l -0.0879,5.35937 -0.0879,5.35938 -5.35937,0.0879 -5.36133,0.0879 v -5.44727 z m -216.56055,32.95898 c -11.426508,0 -12.345069,0.0421 -13.451169,0.60938 -1.49342,0.76588 -2.437227,1.80472 -2.904297,3.19922 -0.24723,0.73815 -0.362422,4.9541 -0.357422,13.11914 0.0064,10.98903 0.05888,12.14348 0.595703,13.3125 0.72033,1.56868 1.542119,2.32778 3.136719,2.89648 1.62714,0.58029 23.854646,0.65966 25.749996,0.0918 1.4683,-0.43991 3.14172,-2.04445 3.67969,-3.5293 0.46632,-1.28706 0.5753,-23.41196 0.125,-25.35351 -0.40053,-1.72697 -1.24064,-2.7769 -2.90039,-3.625 -1.38878,-0.7096 -1.58547,-0.72071 -13.67383,-0.72071 z m 88.7793,0.008 c -11.20262,0.006 -12.32687,0.0561 -13.52344,0.59961 -1.56564,0.71107 -2.57289,1.91105 -3.03125,3.61328 -0.21869,0.81225 -0.30519,5.53536 -0.24219,13.33398 0.0849,10.5025 0.16654,12.17892 0.61914,12.86914 0.89786,1.36917 2.11377,2.36143 3.37891,2.75977 0.87671,0.276 4.65242,0.36651 13.4043,0.32031 l 12.18359,-0.0645 1.29688,-0.85743 c 0.78091,-0.51703 1.56796,-1.41765 1.97656,-2.26171 0.65554,-1.35417 0.67887,-1.81742 0.67187,-13.54102 -0.006,-11.11723 -0.0566,-12.24765 -0.59765,-13.41992 -0.68346,-1.48084 -1.73462,-2.53222 -3.01563,-3.01758 -0.58209,-0.22055 -5.22548,-0.33898 -13.12109,-0.33398 z m 133.10352,0 c -11.20635,0.006 -12.30894,0.0544 -13.51368,0.60156 -1.4102,0.64044 -2.37021,1.78173 -2.95898,3.51758 -0.51505,1.51843 -0.51346,23.64104 0.002,25.36132 0.48645,1.62362 2.15973,3.3139 3.68945,3.73047 0.76169,0.20744 5.79796,0.31215 13.4043,0.27735 l 12.1836,-0.0566 1.29687,-0.85743 c 0.78093,-0.51703 1.56796,-1.41765 1.97656,-2.26171 0.65476,-1.35286 0.67774,-1.82571 0.67774,-13.47071 0,-12.9585 -0.0538,-13.44097 -1.69531,-15.19336 -1.50377,-1.6053 -1.97398,-1.65643 -15.0625,-1.64843 z m -88.41016,0.0625 c -11.90707,-0.0858 -12.63937,-0.0592 -13.7832,0.52734 -1.45267,0.74491 -2.48546,1.80458 -2.94727,3.02344 -0.22055,0.58208 -0.33898,5.22352 -0.33398,13.11914 0.006,11.17042 0.0564,12.32986 0.59375,13.5 0.72034,1.56868 1.54407,2.32778 3.13867,2.89648 1.6054,0.57256 24.05269,0.6612 25.73242,0.10156 1.58366,-0.52763 3.36092,-2.35994 3.79492,-3.91211 0.25971,-0.92874 0.34059,-4.92436 0.27149,-13.32617 -0.11123,-13.52505 -0.0757,-13.31336 -2.56446,-14.96093 l -1.32617,-0.87891 z m 43.66211,0 -12.6211,0.0898 -1.16015,0.79492 c -0.63747,0.43698 -1.45503,1.3199 -1.81641,1.96289 -0.63165,1.12384 -0.65625,1.65315 -0.65625,13.69531 0,13.4804 0.0374,13.8116 1.68946,15.33399 0.446,0.41101 1.36432,0.94428 2.04101,1.18555 0.95629,0.34096 3.86759,0.44226 13.07031,0.44726 10.84435,0.006 11.94678,-0.0429 13.11914,-0.58398 1.48084,-0.68345 2.53417,-1.73656 3.01954,-3.01758 0.22058,-0.58216 0.33984,-5.32495 0.33984,-13.41016 v -12.51172 l -0.79492,-1.35742 c -0.53468,-0.91238 -1.25692,-1.581 -2.20313,-2.03906 -1.37398,-0.66513 -1.70927,-0.67844 -14.02734,-0.58984 z m -145.74024,0.0898 -1.16015,0.79492 c -0.63773,0.43698 -1.45503,1.3199 -1.81641,1.96289 -0.63165,1.12384 -0.65625,1.65315 -0.65625,13.69531 0,13.4804 0.0355,13.8116 1.6875,15.33399 0.446,0.41101 1.36433,0.94428 2.04102,1.18555 0.95629,0.34096 3.86759,0.44031 13.07031,0.44531 10.84435,0.006 11.94873,-0.041 13.12109,-0.58203 1.48084,-0.68345 2.53222,-1.73656 3.01758,-3.01758 0.2202,-0.58116 0.3418,-5.26281 0.3418,-13.19336 0,-13.94947 -0.0267,-14.13197 -2.31641,-15.71875 l -1.30859,-0.90625 h -13.01172 z m -26.0332,11.02539 v 5.44727 5.44726 h -5.44727 -5.44921 l 0.0879,-5.35937 0.0879,-5.36133 5.35937,-0.0879 z m 78.08008,0 5.35937,0.0859 5.35938,0.0879 0.0879,5.36133 0.0879,5.35937 h -5.44727 -5.44726 v -5.44726 z m 55.03906,0 v 5.44727 5.44726 h -5.44726 -5.44727 l 0.0879,-5.35937 0.0879,-5.36133 5.35938,-0.0879 z m 78.08008,0 5.36133,0.0859 5.35937,0.0879 0.0879,5.36133 0.0879,5.35937 h -5.44921 -5.44727 v -5.44726 z m -177.59961,0.0137 h 5.43945 5.44141 v 5.44141 5.43945 h -5.44141 -5.43945 v -5.43945 z m 133.11914,0 h 5.44141 5.43945 v 5.44141 5.43945 h -5.43945 -5.44141 v -5.43945 z m -159.26172,33.25977 -13.08789,0.0898 -13.089842,0.0918 -1.041016,0.78125 c -0.57251,0.42947 -1.332053,1.38475 -1.689453,2.12305 -0.62459,1.29014 -0.647747,1.83306 -0.560547,13.96289 l 0.0918,12.62109 0.798828,1.17773 c 0.44,0.64785 1.376078,1.46361 2.080078,1.81446 1.2133,0.60471 1.936842,0.6384 13.857422,0.63867 13.76536,2.8e-4 13.57888,0.0247 15.21679,-1.92188 1.43329,-1.70365 1.52832,-2.73743 1.42383,-15.45703 -0.0976,-11.88704 -0.0988,-11.90281 -0.85742,-13.12304 -0.41768,-0.67185 -1.29553,-1.57589 -1.95117,-2.00977 z m 98.0293,0.0215 c -78.0189,0 -78.96771,0.008 -80.19336,0.63281 -0.68216,0.34801 -1.57551,1.1037 -1.98633,1.67969 l -0.74609,1.04688 -0.0918,13.13867 -0.0898,13.13867 0.92968,1.28125 c 0.51069,0.705 1.41494,1.52142 2.00977,1.81445 1.00011,0.49271 7.04266,0.53316 80.28125,0.53516 l 79.19922,0.002 1.27344,-0.7207 c 0.70884,-0.40147 1.59726,-1.28724 2.00195,-1.99609 0.72682,-1.27304 0.72698,-1.27822 0.64648,-14.09766 l -0.082,-12.82227 -0.79883,-1.18164 c -0.44,-0.64947 -1.386,-1.46701 -2.10156,-1.8164 -1.28708,-0.62825 -2.14717,-0.63477 -80.25195,-0.63477 z m 111.16406,0 c -14.32506,0 -14.01518,-0.0508 -15.85156,2.53906 l -0.95899,1.35547 -0.0957,11.96485 c -0.0616,7.80267 0.0264,12.40771 0.25,13.23828 0.41952,1.55795 1.7216,3.16282 3.0293,3.73242 1.47151,0.64127 25.76506,0.63913 26.99219,-0.002 1.16023,-0.60613 2.50686,-2.06637 2.92382,-3.16993 0.21875,-0.57902 0.33985,-5.25712 0.33985,-13.09765 0,-11.48715 -0.0365,-12.27415 -0.63086,-13.50195 -0.37814,-0.78115 -1.17382,-1.65607 -1.98438,-2.18164 l -1.35351,-0.87696 z m -227.53125,11.19922 h 5.44141 5.43945 v 5.44141 5.43945 h -5.43945 -5.44141 v -5.43945 z m 44.48047,0 h 72 72 v 5.44141 5.43945 h -72 -72 v -5.43945 z m 177.59961,0 h 5.43945 5.44141 v 5.44141 5.43945 h -5.44141 -5.43945 v -5.43945 z" />
  </g>
</svg>
